<?xml version="1.0" encoding="UTF-8"?>
<svg xmlns="http://www.w3.org/2000/svg" xmlns:xlink="http://www.w3.org/1999/xlink" width="504pt" height="360pt" viewBox="0 0 504 360">
<defs>
<g>
<g id="glyph-0-0">
<path d="M 0.382812 -2.578125 L 0.382812 -3.640625 L 3.621094 -3.640625 L 3.621094 -2.578125 Z M 0.382812 -2.578125 "/>
</g>
<g id="glyph-0-1">
<path d="M 6.039062 -1.015625 L 6.039062 0 L 0.363281 0 C 0.355469 -0.253906 0.394531 -0.5 0.484375 -0.734375 C 0.628906 -1.117188 0.863281 -1.5 1.179688 -1.875 C 1.5 -2.25 1.957031 -2.683594 2.5625 -3.175781 C 3.492188 -3.941406 4.125 -4.546875 4.453125 -4.996094 C 4.78125 -5.441406 4.945312 -5.867188 4.945312 -6.265625 C 4.945312 -6.679688 4.796875 -7.035156 4.496094 -7.320312 C 4.199219 -7.609375 3.808594 -7.75 3.328125 -7.75 C 2.820312 -7.75 2.414062 -7.601562 2.109375 -7.296875 C 1.804688 -6.992188 1.648438 -6.570312 1.648438 -6.03125 L 0.5625 -6.140625 C 0.636719 -6.949219 0.917969 -7.566406 1.398438 -7.988281 C 1.882812 -8.414062 2.535156 -8.625 3.351562 -8.625 C 4.175781 -8.625 4.828125 -8.398438 5.308594 -7.9375 C 5.789062 -7.484375 6.03125 -6.914062 6.03125 -6.242188 C 6.03125 -5.894531 5.957031 -5.558594 5.820312 -5.226562 C 5.675781 -4.894531 5.445312 -4.542969 5.117188 -4.179688 C 4.792969 -3.808594 4.25 -3.304688 3.492188 -2.664062 C 2.859375 -2.132812 2.453125 -1.773438 2.273438 -1.585938 C 2.09375 -1.394531 1.945312 -1.203125 1.828125 -1.015625 Z M 6.039062 -1.015625 "/>
</g>
<g id="glyph-0-2">
<path d="M 4.46875 0 L 3.414062 0 L 3.414062 -6.71875 C 3.160156 -6.476562 2.828125 -6.234375 2.417969 -5.992188 C 2.003906 -5.75 1.632812 -5.570312 1.304688 -5.449219 L 1.304688 -6.46875 C 1.894531 -6.746094 2.410156 -7.082031 2.851562 -7.476562 C 3.292969 -7.871094 3.605469 -8.253906 3.789062 -8.625 L 4.46875 -8.625 Z M 4.46875 0 "/>
</g>
<g id="glyph-0-3">
<path d="M 0.5 -4.234375 C 0.5 -5.25 0.601562 -6.070312 0.8125 -6.6875 C 1.019531 -7.308594 1.332031 -7.785156 1.742188 -8.121094 C 2.15625 -8.457031 2.671875 -8.625 3.296875 -8.625 C 3.757812 -8.625 4.164062 -8.53125 4.511719 -8.347656 C 4.859375 -8.160156 5.144531 -7.894531 5.375 -7.542969 C 5.597656 -7.195312 5.777344 -6.769531 5.90625 -6.265625 C 6.035156 -5.765625 6.101562 -5.085938 6.101562 -4.234375 C 6.101562 -3.226562 5.996094 -2.414062 5.789062 -1.796875 C 5.582031 -1.175781 5.273438 -0.699219 4.859375 -0.359375 C 4.449219 -0.0234375 3.925781 0.148438 3.296875 0.148438 C 2.46875 0.148438 1.820312 -0.152344 1.347656 -0.742188 C 0.78125 -1.460938 0.5 -2.621094 0.5 -4.234375 M 1.582031 -4.234375 C 1.582031 -2.824219 1.746094 -1.886719 2.078125 -1.421875 C 2.40625 -0.953125 2.8125 -0.71875 3.296875 -0.71875 C 3.78125 -0.71875 4.191406 -0.953125 4.519531 -1.421875 C 4.851562 -1.890625 5.015625 -2.828125 5.015625 -4.234375 C 5.015625 -5.648438 4.851562 -6.589844 4.519531 -7.054688 C 4.191406 -7.519531 3.78125 -7.75 3.289062 -7.75 C 2.800781 -7.75 2.414062 -7.546875 2.125 -7.136719 C 1.765625 -6.613281 1.582031 -5.644531 1.582031 -4.234375 Z M 1.582031 -4.234375 "/>
</g>
<g id="glyph-0-4">
<path d="M 3.109375 0 L 3.109375 -7.578125 L 0.28125 -7.578125 L 0.28125 -8.589844 L 7.089844 -8.589844 L 7.089844 -7.578125 L 4.25 -7.578125 L 4.25 0 Z M 3.109375 0 "/>
</g>
<g id="glyph-0-5">
<path d="M 0.789062 0 L 0.789062 -8.589844 L 1.84375 -8.589844 L 1.84375 -5.507812 C 2.335938 -6.078125 2.957031 -6.363281 3.710938 -6.363281 C 4.167969 -6.363281 4.570312 -6.273438 4.910156 -6.089844 C 5.25 -5.910156 5.492188 -5.65625 5.640625 -5.335938 C 5.785156 -5.015625 5.859375 -4.554688 5.859375 -3.945312 L 5.859375 0 L 4.804688 0 L 4.804688 -3.945312 C 4.804688 -4.46875 4.691406 -4.855469 4.460938 -5.09375 C 4.234375 -5.335938 3.910156 -5.453125 3.492188 -5.453125 C 3.179688 -5.453125 2.886719 -5.375 2.609375 -5.210938 C 2.335938 -5.050781 2.140625 -4.828125 2.023438 -4.554688 C 1.90625 -4.273438 1.84375 -3.890625 1.84375 -3.40625 L 1.84375 0 Z M 0.789062 0 "/>
</g>
<g id="glyph-0-6">
<path d="M 5.050781 -2.003906 L 6.140625 -1.867188 C 5.96875 -1.230469 5.648438 -0.738281 5.1875 -0.386719 C 4.71875 -0.0351562 4.125 0.140625 3.40625 0.140625 C 2.492188 0.140625 1.773438 -0.140625 1.238281 -0.699219 C 0.707031 -1.261719 0.4375 -2.046875 0.4375 -3.058594 C 0.4375 -4.105469 0.710938 -4.917969 1.25 -5.496094 C 1.789062 -6.074219 2.484375 -6.363281 3.34375 -6.363281 C 4.179688 -6.363281 4.859375 -6.078125 5.382812 -5.515625 C 5.914062 -4.945312 6.175781 -4.148438 6.175781 -3.125 C 6.175781 -3.058594 6.171875 -2.964844 6.171875 -2.84375 L 1.53125 -2.84375 C 1.566406 -2.15625 1.761719 -1.632812 2.109375 -1.273438 C 2.457031 -0.90625 2.890625 -0.726562 3.410156 -0.726562 C 3.796875 -0.726562 4.125 -0.828125 4.398438 -1.03125 C 4.671875 -1.234375 4.890625 -1.558594 5.050781 -2.003906 M 1.585938 -3.710938 L 5.0625 -3.710938 C 5.015625 -4.230469 4.882812 -4.625 4.664062 -4.886719 C 4.328125 -5.292969 3.890625 -5.496094 3.359375 -5.496094 C 2.871094 -5.496094 2.464844 -5.332031 2.136719 -5.007812 C 1.804688 -4.683594 1.625 -4.25 1.585938 -3.710938 Z M 1.585938 -3.710938 "/>
</g>
<g id="glyph-0-7">
<path d="M 0.398438 -3.109375 C 0.398438 -4.261719 0.71875 -5.117188 1.359375 -5.671875 C 1.894531 -6.132812 2.546875 -6.363281 3.316406 -6.363281 C 4.171875 -6.363281 4.871094 -6.082031 5.414062 -5.523438 C 5.957031 -4.960938 6.226562 -4.1875 6.226562 -3.199219 C 6.226562 -2.398438 6.109375 -1.769531 5.867188 -1.308594 C 5.628906 -0.851562 5.277344 -0.492188 4.820312 -0.242188 C 4.359375 0.0117188 3.859375 0.140625 3.316406 0.140625 C 2.445312 0.140625 1.742188 -0.140625 1.203125 -0.695312 C 0.667969 -1.253906 0.398438 -2.058594 0.398438 -3.109375 M 1.484375 -3.109375 C 1.484375 -2.3125 1.65625 -1.71875 2.003906 -1.320312 C 2.351562 -0.925781 2.789062 -0.726562 3.316406 -0.726562 C 3.839844 -0.726562 4.273438 -0.925781 4.625 -1.324219 C 4.96875 -1.722656 5.144531 -2.328125 5.144531 -3.148438 C 5.144531 -3.914062 4.96875 -4.5 4.621094 -4.894531 C 4.269531 -5.292969 3.835938 -5.492188 3.316406 -5.492188 C 2.789062 -5.492188 2.351562 -5.292969 2.003906 -4.898438 C 1.65625 -4.503906 1.484375 -3.90625 1.484375 -3.109375 Z M 1.484375 -3.109375 "/>
</g>
<g id="glyph-0-8">
<path d="M 0.78125 0 L 0.78125 -6.222656 L 1.726562 -6.222656 L 1.726562 -5.28125 C 1.96875 -5.71875 2.195312 -6.011719 2.398438 -6.152344 C 2.605469 -6.292969 2.828125 -6.363281 3.078125 -6.363281 C 3.429688 -6.363281 3.792969 -6.25 4.160156 -6.023438 L 3.796875 -5.046875 C 3.539062 -5.195312 3.28125 -5.273438 3.023438 -5.273438 C 2.792969 -5.273438 2.585938 -5.203125 2.402344 -5.066406 C 2.21875 -4.925781 2.085938 -4.734375 2.007812 -4.488281 C 1.890625 -4.113281 1.835938 -3.703125 1.835938 -3.257812 L 1.835938 0 Z M 0.78125 0 "/>
</g>
<g id="glyph-0-9">
<path d="M 3.09375 -0.945312 L 3.246094 -0.0117188 C 2.949219 0.0507812 2.683594 0.0820312 2.449219 0.0820312 C 2.066406 0.0820312 1.769531 0.0195312 1.558594 -0.101562 C 1.347656 -0.21875 1.199219 -0.378906 1.113281 -0.578125 C 1.027344 -0.773438 0.984375 -1.1875 0.984375 -1.820312 L 0.984375 -5.402344 L 0.210938 -5.402344 L 0.210938 -6.222656 L 0.984375 -6.222656 L 0.984375 -7.765625 L 2.03125 -8.398438 L 2.03125 -6.222656 L 3.09375 -6.222656 L 3.09375 -5.402344 L 2.03125 -5.402344 L 2.03125 -1.765625 C 2.03125 -1.460938 2.050781 -1.269531 2.089844 -1.183594 C 2.125 -1.097656 2.1875 -1.027344 2.269531 -0.976562 C 2.355469 -0.925781 2.472656 -0.902344 2.632812 -0.902344 C 2.75 -0.902344 2.902344 -0.914062 3.09375 -0.945312 Z M 3.09375 -0.945312 "/>
</g>
<g id="glyph-0-10">
<path d="M 0.796875 -7.375 L 0.796875 -8.589844 L 1.851562 -8.589844 L 1.851562 -7.375 L 0.796875 -7.375 M 0.796875 0 L 0.796875 -6.222656 L 1.851562 -6.222656 L 1.851562 0 Z M 0.796875 0 "/>
</g>
<g id="glyph-0-11">
<path d="M 4.851562 -2.28125 L 5.890625 -2.144531 C 5.773438 -1.429688 5.484375 -0.871094 5.019531 -0.464844 C 4.550781 -0.0625 3.976562 0.140625 3.296875 0.140625 C 2.445312 0.140625 1.761719 -0.136719 1.246094 -0.695312 C 0.726562 -1.25 0.46875 -2.046875 0.46875 -3.085938 C 0.46875 -3.757812 0.578125 -4.347656 0.804688 -4.851562 C 1.023438 -5.355469 1.363281 -5.734375 1.820312 -5.984375 C 2.273438 -6.238281 2.769531 -6.363281 3.304688 -6.363281 C 3.980469 -6.363281 4.53125 -6.191406 4.960938 -5.851562 C 5.390625 -5.507812 5.667969 -5.023438 5.789062 -4.394531 L 4.765625 -4.234375 C 4.664062 -4.652344 4.492188 -4.96875 4.246094 -5.179688 C 3.996094 -5.390625 3.695312 -5.496094 3.34375 -5.496094 C 2.8125 -5.496094 2.382812 -5.304688 2.050781 -4.925781 C 1.71875 -4.542969 1.554688 -3.941406 1.554688 -3.117188 C 1.554688 -2.28125 1.710938 -1.671875 2.03125 -1.296875 C 2.351562 -0.917969 2.769531 -0.726562 3.289062 -0.726562 C 3.699219 -0.726562 4.046875 -0.851562 4.324219 -1.109375 C 4.601562 -1.359375 4.777344 -1.75 4.851562 -2.28125 Z M 4.851562 -2.28125 "/>
</g>
<g id="glyph-0-12">
<path d="M 4.851562 -0.765625 C 4.460938 -0.433594 4.085938 -0.199219 3.722656 -0.0625 C 3.363281 0.0703125 2.972656 0.140625 2.5625 0.140625 C 1.875 0.140625 1.351562 -0.0273438 0.984375 -0.359375 C 0.617188 -0.695312 0.433594 -1.121094 0.433594 -1.640625 C 0.433594 -1.945312 0.503906 -2.222656 0.640625 -2.476562 C 0.78125 -2.726562 0.960938 -2.929688 1.1875 -3.082031 C 1.410156 -3.234375 1.664062 -3.347656 1.945312 -3.429688 C 2.152344 -3.480469 2.464844 -3.535156 2.882812 -3.585938 C 3.734375 -3.6875 4.359375 -3.808594 4.765625 -3.949219 C 4.765625 -4.09375 4.769531 -4.183594 4.769531 -4.226562 C 4.769531 -4.652344 4.671875 -4.957031 4.46875 -5.132812 C 4.203125 -5.371094 3.800781 -5.492188 3.269531 -5.492188 C 2.773438 -5.492188 2.40625 -5.402344 2.171875 -5.230469 C 1.933594 -5.054688 1.757812 -4.746094 1.648438 -4.304688 L 0.617188 -4.445312 C 0.707031 -4.886719 0.863281 -5.246094 1.078125 -5.515625 C 1.292969 -5.789062 1.601562 -5.996094 2.007812 -6.144531 C 2.414062 -6.289062 2.886719 -6.363281 3.421875 -6.363281 C 3.953125 -6.363281 4.382812 -6.300781 4.71875 -6.175781 C 5.046875 -6.050781 5.292969 -5.894531 5.449219 -5.703125 C 5.605469 -5.515625 5.714844 -5.273438 5.777344 -4.984375 C 5.8125 -4.804688 5.828125 -4.484375 5.828125 -4.015625 L 5.828125 -2.609375 C 5.828125 -1.628906 5.851562 -1.007812 5.898438 -0.746094 C 5.941406 -0.488281 6.03125 -0.238281 6.164062 0 L 5.0625 0 C 4.953125 -0.21875 4.882812 -0.476562 4.851562 -0.765625 M 4.765625 -3.125 C 4.378906 -2.964844 3.804688 -2.832031 3.039062 -2.726562 C 2.605469 -2.660156 2.300781 -2.589844 2.121094 -2.515625 C 1.941406 -2.433594 1.800781 -2.320312 1.703125 -2.171875 C 1.605469 -2.019531 1.558594 -1.851562 1.558594 -1.671875 C 1.558594 -1.386719 1.664062 -1.152344 1.878906 -0.96875 C 2.089844 -0.78125 2.402344 -0.683594 2.8125 -0.6875 C 3.21875 -0.683594 3.578125 -0.773438 3.898438 -0.953125 C 4.210938 -1.128906 4.445312 -1.371094 4.59375 -1.679688 C 4.707031 -1.917969 4.761719 -2.269531 4.765625 -2.734375 Z M 4.765625 -3.125 "/>
</g>
<g id="glyph-0-13">
<path d="M 0.765625 0 L 0.765625 -8.589844 L 1.820312 -8.589844 L 1.820312 0 Z M 0.765625 0 "/>
</g>
<g id="glyph-0-14">
</g>
<g id="glyph-0-15">
<path d="M 7.4375 -0.921875 C 7.960938 -0.554688 8.449219 -0.289062 8.894531 -0.125 L 8.5625 0.667969 C 7.941406 0.445312 7.328125 0.09375 6.714844 -0.386719 C 6.078125 -0.03125 5.375 0.148438 4.605469 0.148438 C 3.828125 0.148438 3.125 -0.0429688 2.492188 -0.414062 C 1.859375 -0.789062 1.371094 -1.320312 1.027344 -2 C 0.6875 -2.679688 0.515625 -3.441406 0.515625 -4.296875 C 0.515625 -5.140625 0.6875 -5.914062 1.03125 -6.609375 C 1.375 -7.304688 1.863281 -7.835938 2.5 -8.195312 C 3.132812 -8.5625 3.84375 -8.742188 4.628906 -8.742188 C 5.421875 -8.742188 6.136719 -8.554688 6.773438 -8.175781 C 7.410156 -7.800781 7.894531 -7.273438 8.230469 -6.59375 C 8.5625 -5.917969 8.730469 -5.152344 8.730469 -4.300781 C 8.730469 -3.59375 8.621094 -2.957031 8.40625 -2.394531 C 8.191406 -1.828125 7.867188 -1.335938 7.4375 -0.921875 M 4.933594 -2.375 C 5.589844 -2.1875 6.128906 -1.914062 6.554688 -1.554688 C 7.226562 -2.164062 7.558594 -3.078125 7.558594 -4.300781 C 7.558594 -4.996094 7.441406 -5.601562 7.203125 -6.125 C 6.96875 -6.640625 6.621094 -7.046875 6.167969 -7.332031 C 5.710938 -7.621094 5.199219 -7.765625 4.632812 -7.765625 C 3.789062 -7.765625 3.082031 -7.472656 2.523438 -6.894531 C 1.964844 -6.3125 1.6875 -5.445312 1.6875 -4.296875 C 1.6875 -3.175781 1.964844 -2.320312 2.515625 -1.722656 C 3.070312 -1.125 3.777344 -0.828125 4.632812 -0.828125 C 5.039062 -0.828125 5.421875 -0.902344 5.78125 -1.054688 C 5.425781 -1.285156 5.050781 -1.449219 4.65625 -1.546875 Z M 4.933594 -2.375 "/>
</g>
<g id="glyph-0-16">
<path d="M 4.867188 0 L 4.867188 -0.914062 C 4.382812 -0.210938 3.726562 0.140625 2.894531 0.140625 C 2.527344 0.140625 2.183594 0.0703125 1.867188 -0.0703125 C 1.546875 -0.210938 1.3125 -0.386719 1.15625 -0.601562 C 1.003906 -0.8125 0.894531 -1.074219 0.832031 -1.382812 C 0.789062 -1.589844 0.765625 -1.917969 0.765625 -2.367188 L 0.765625 -6.222656 L 1.820312 -6.222656 L 1.820312 -2.773438 C 1.820312 -2.21875 1.84375 -1.847656 1.886719 -1.65625 C 1.953125 -1.378906 2.09375 -1.164062 2.308594 -1.003906 C 2.523438 -0.847656 2.789062 -0.765625 3.105469 -0.765625 C 3.421875 -0.765625 3.71875 -0.847656 3.996094 -1.011719 C 4.273438 -1.171875 4.46875 -1.394531 4.585938 -1.671875 C 4.699219 -1.953125 4.757812 -2.355469 4.757812 -2.890625 L 4.757812 -6.222656 L 5.8125 -6.222656 L 5.8125 0 Z M 4.867188 0 "/>
</g>
<g id="glyph-0-17">
<path d="M 0.789062 0 L 0.789062 -6.222656 L 1.742188 -6.222656 L 1.742188 -5.335938 C 2.195312 -6.019531 2.855469 -6.363281 3.71875 -6.363281 C 4.09375 -6.363281 4.441406 -6.296875 4.753906 -6.160156 C 5.070312 -6.027344 5.304688 -5.847656 5.460938 -5.632812 C 5.617188 -5.410156 5.726562 -5.152344 5.789062 -4.851562 C 5.828125 -4.65625 5.847656 -4.3125 5.847656 -3.828125 L 5.847656 0 L 4.792969 0 L 4.792969 -3.785156 C 4.792969 -4.214844 4.75 -4.535156 4.671875 -4.75 C 4.585938 -4.960938 4.441406 -5.132812 4.234375 -5.257812 C 4.023438 -5.386719 3.78125 -5.449219 3.5 -5.449219 C 3.046875 -5.449219 2.660156 -5.304688 2.335938 -5.023438 C 2.007812 -4.734375 1.84375 -4.195312 1.84375 -3.398438 L 1.84375 0 Z M 0.789062 0 "/>
</g>
<g id="glyph-0-18">
<path d="M 0.367188 -1.859375 L 1.414062 -2.023438 C 1.46875 -1.601562 1.632812 -1.28125 1.902344 -1.0625 C 2.167969 -0.835938 2.542969 -0.726562 3.023438 -0.726562 C 3.507812 -0.726562 3.867188 -0.824219 4.101562 -1.023438 C 4.335938 -1.21875 4.453125 -1.449219 4.453125 -1.71875 C 4.453125 -1.953125 4.347656 -2.140625 4.140625 -2.28125 C 3.996094 -2.375 3.640625 -2.492188 3.0625 -2.636719 C 2.289062 -2.832031 1.753906 -3 1.457031 -3.144531 C 1.15625 -3.285156 0.929688 -3.484375 0.777344 -3.734375 C 0.621094 -3.988281 0.546875 -4.265625 0.546875 -4.570312 C 0.546875 -4.847656 0.609375 -5.105469 0.734375 -5.339844 C 0.863281 -5.578125 1.035156 -5.773438 1.253906 -5.929688 C 1.417969 -6.050781 1.640625 -6.152344 1.925781 -6.238281 C 2.207031 -6.320312 2.511719 -6.363281 2.835938 -6.363281 C 3.324219 -6.363281 3.753906 -6.292969 4.121094 -6.152344 C 4.492188 -6.011719 4.761719 -5.820312 4.9375 -5.582031 C 5.113281 -5.339844 5.234375 -5.019531 5.304688 -4.617188 L 4.273438 -4.476562 C 4.226562 -4.796875 4.089844 -5.046875 3.863281 -5.226562 C 3.640625 -5.40625 3.320312 -5.496094 2.914062 -5.496094 C 2.425781 -5.496094 2.082031 -5.414062 1.875 -5.257812 C 1.667969 -5.09375 1.5625 -4.90625 1.5625 -4.695312 C 1.5625 -4.554688 1.605469 -4.433594 1.695312 -4.324219 C 1.777344 -4.210938 1.914062 -4.117188 2.097656 -4.042969 C 2.203125 -4.003906 2.515625 -3.914062 3.03125 -3.773438 C 3.773438 -3.574219 4.296875 -3.410156 4.589844 -3.285156 C 4.886719 -3.15625 5.117188 -2.972656 5.285156 -2.730469 C 5.453125 -2.488281 5.535156 -2.1875 5.539062 -1.828125 C 5.535156 -1.476562 5.433594 -1.144531 5.230469 -0.835938 C 5.023438 -0.523438 4.726562 -0.285156 4.34375 -0.113281 C 3.953125 0.0546875 3.515625 0.140625 3.03125 0.140625 C 2.21875 0.140625 1.605469 -0.0273438 1.179688 -0.363281 C 0.757812 -0.699219 0.484375 -1.199219 0.367188 -1.859375 Z M 0.367188 -1.859375 "/>
</g>
<g id="glyph-0-19">
<path d="M 0.789062 0 L 0.789062 -6.222656 L 1.734375 -6.222656 L 1.734375 -5.351562 C 1.929688 -5.65625 2.1875 -5.898438 2.515625 -6.085938 C 2.835938 -6.269531 3.207031 -6.363281 3.621094 -6.363281 C 4.082031 -6.363281 4.460938 -6.265625 4.753906 -6.078125 C 5.050781 -5.882812 5.257812 -5.617188 5.378906 -5.273438 C 5.871094 -6 6.511719 -6.363281 7.300781 -6.363281 C 7.917969 -6.363281 8.390625 -6.191406 8.726562 -5.851562 C 9.054688 -5.507812 9.222656 -4.980469 9.222656 -4.273438 L 9.222656 0 L 8.171875 0 L 8.171875 -3.921875 C 8.171875 -4.339844 8.140625 -4.644531 8.070312 -4.832031 C 8.003906 -5.015625 7.878906 -5.164062 7.699219 -5.28125 C 7.519531 -5.390625 7.308594 -5.449219 7.066406 -5.449219 C 6.628906 -5.449219 6.265625 -5.304688 5.976562 -5.011719 C 5.6875 -4.722656 5.542969 -4.253906 5.542969 -3.617188 L 5.542969 0 L 4.488281 0 L 4.488281 -4.042969 C 4.488281 -4.511719 4.402344 -4.863281 4.230469 -5.097656 C 4.058594 -5.332031 3.777344 -5.449219 3.386719 -5.449219 C 3.089844 -5.449219 2.816406 -5.371094 2.5625 -5.214844 C 2.3125 -5.058594 2.128906 -4.828125 2.015625 -4.53125 C 1.902344 -4.226562 1.84375 -3.792969 1.84375 -3.226562 L 1.84375 0 Z M 0.789062 0 "/>
</g>
<g id="glyph-0-20">
<path d="M 2.804688 2.523438 C 2.222656 1.789062 1.730469 0.929688 1.328125 -0.0546875 C 0.929688 -1.035156 0.726562 -2.054688 0.726562 -3.109375 C 0.726562 -4.039062 0.875 -4.929688 1.179688 -5.78125 C 1.53125 -6.769531 2.070312 -7.753906 2.804688 -8.734375 L 3.5625 -8.734375 C 3.089844 -7.921875 2.777344 -7.34375 2.625 -6.996094 C 2.386719 -6.457031 2.199219 -5.894531 2.0625 -5.308594 C 1.894531 -4.578125 1.8125 -3.84375 1.8125 -3.105469 C 1.8125 -1.226562 2.394531 0.652344 3.5625 2.523438 Z M 2.804688 2.523438 "/>
</g>
<g id="glyph-0-21">
<path d="M 0.597656 0.515625 L 1.625 0.667969 C 1.664062 0.984375 1.785156 1.214844 1.980469 1.359375 C 2.242188 1.554688 2.597656 1.652344 3.054688 1.652344 C 3.539062 1.652344 3.917969 1.554688 4.183594 1.359375 C 4.449219 1.164062 4.628906 0.890625 4.722656 0.539062 C 4.777344 0.324219 4.800781 -0.128906 4.796875 -0.8125 C 4.335938 -0.273438 3.761719 0 3.078125 0 C 2.21875 0 1.558594 -0.308594 1.089844 -0.925781 C 0.621094 -1.542969 0.386719 -2.28125 0.386719 -3.148438 C 0.386719 -3.738281 0.492188 -4.289062 0.710938 -4.789062 C 0.921875 -5.292969 1.234375 -5.679688 1.644531 -5.953125 C 2.050781 -6.226562 2.53125 -6.363281 3.082031 -6.363281 C 3.816406 -6.363281 4.421875 -6.066406 4.898438 -5.472656 L 4.898438 -6.222656 L 5.871094 -6.222656 L 5.871094 -0.84375 C 5.871094 0.125 5.773438 0.8125 5.574219 1.214844 C 5.378906 1.621094 5.066406 1.9375 4.636719 2.171875 C 4.210938 2.40625 3.683594 2.523438 3.058594 2.523438 C 2.316406 2.523438 1.71875 2.359375 1.257812 2.023438 C 0.804688 1.691406 0.582031 1.1875 0.597656 0.515625 M 1.46875 -3.222656 C 1.46875 -2.40625 1.632812 -1.8125 1.957031 -1.4375 C 2.28125 -1.0625 2.6875 -0.875 3.175781 -0.875 C 3.660156 -0.875 4.066406 -1.058594 4.394531 -1.433594 C 4.722656 -1.804688 4.886719 -2.390625 4.886719 -3.1875 C 4.886719 -3.949219 4.71875 -4.523438 4.378906 -4.910156 C 4.042969 -5.296875 3.632812 -5.492188 3.15625 -5.492188 C 2.6875 -5.492188 2.289062 -5.300781 1.960938 -4.917969 C 1.632812 -4.539062 1.46875 -3.972656 1.46875 -3.222656 Z M 1.46875 -3.222656 "/>
</g>
<g id="glyph-0-22">
<path d="M 1.089844 0 L 1.089844 -1.203125 L 2.289062 -1.203125 L 2.289062 0 Z M 1.089844 0 "/>
</g>
<g id="glyph-0-23">
<path d="M 0.789062 2.382812 L 0.789062 -6.222656 L 1.75 -6.222656 L 1.75 -5.414062 C 1.976562 -5.730469 2.234375 -5.96875 2.519531 -6.125 C 2.804688 -6.285156 3.148438 -6.363281 3.554688 -6.363281 C 4.085938 -6.363281 4.554688 -6.226562 4.960938 -5.953125 C 5.367188 -5.679688 5.675781 -5.292969 5.882812 -4.796875 C 6.089844 -4.296875 6.195312 -3.75 6.195312 -3.15625 C 6.195312 -2.519531 6.078125 -1.949219 5.851562 -1.4375 C 5.621094 -0.929688 5.289062 -0.539062 4.855469 -0.265625 C 4.417969 0.00390625 3.960938 0.140625 3.480469 0.140625 C 3.128906 0.140625 2.8125 0.0664062 2.535156 -0.0820312 C 2.253906 -0.230469 2.023438 -0.417969 1.84375 -0.644531 L 1.84375 2.382812 L 0.789062 2.382812 M 1.746094 -3.078125 C 1.746094 -2.273438 1.90625 -1.683594 2.234375 -1.300781 C 2.554688 -0.917969 2.949219 -0.726562 3.410156 -0.726562 C 3.878906 -0.726562 4.28125 -0.925781 4.613281 -1.320312 C 4.949219 -1.71875 5.113281 -2.332031 5.117188 -3.164062 C 5.113281 -3.957031 4.953125 -4.550781 4.625 -4.945312 C 4.300781 -5.339844 3.910156 -5.535156 3.457031 -5.539062 C 3.007812 -5.535156 2.609375 -5.328125 2.265625 -4.90625 C 1.917969 -4.488281 1.746094 -3.875 1.746094 -3.078125 Z M 1.746094 -3.078125 "/>
</g>
<g id="glyph-0-24">
<path d="M 0.507812 -3.265625 L 0.507812 -4.464844 C 0.921875 -4.933594 1.464844 -5.167969 2.140625 -5.167969 C 2.375 -5.167969 2.617188 -5.132812 2.875 -5.066406 C 3.132812 -4.996094 3.5 -4.859375 3.976562 -4.65625 C 4.25 -4.542969 4.449219 -4.46875 4.585938 -4.4375 C 4.71875 -4.398438 4.855469 -4.382812 4.992188 -4.382812 C 5.246094 -4.382812 5.507812 -4.460938 5.78125 -4.609375 C 6.050781 -4.765625 6.292969 -4.953125 6.503906 -5.1875 L 6.503906 -3.945312 C 6.253906 -3.710938 6 -3.539062 5.746094 -3.433594 C 5.488281 -3.328125 5.199219 -3.273438 4.882812 -3.273438 C 4.648438 -3.273438 4.421875 -3.300781 4.210938 -3.359375 C 3.996094 -3.410156 3.660156 -3.542969 3.195312 -3.75 C 2.734375 -3.957031 2.347656 -4.0625 2.039062 -4.0625 C 1.789062 -4.0625 1.554688 -4.007812 1.332031 -3.898438 C 1.113281 -3.792969 0.835938 -3.578125 0.507812 -3.265625 Z M 0.507812 -3.265625 "/>
</g>
<g id="glyph-0-25">
<path d="M 3.007812 -1.390625 L 3.007812 -3.742188 L 0.667969 -3.742188 L 0.667969 -4.726562 L 3.007812 -4.726562 L 3.007812 -7.066406 L 4 -7.066406 L 4 -4.726562 L 6.339844 -4.726562 L 6.339844 -3.742188 L 4 -3.742188 L 4 -1.390625 Z M 3.007812 -1.390625 "/>
</g>
<g id="glyph-0-26">
<path d="M 1.765625 0 L 0.785156 0 L 0.785156 -8.589844 L 1.839844 -8.589844 L 1.839844 -5.523438 C 2.285156 -6.082031 2.851562 -6.363281 3.546875 -6.363281 C 3.925781 -6.363281 4.289062 -6.285156 4.632812 -6.132812 C 4.972656 -5.976562 5.253906 -5.761719 5.476562 -5.480469 C 5.695312 -5.203125 5.867188 -4.863281 5.992188 -4.46875 C 6.117188 -4.074219 6.179688 -3.652344 6.179688 -3.203125 C 6.179688 -2.140625 5.917969 -1.3125 5.390625 -0.734375 C 4.863281 -0.152344 4.230469 0.140625 3.492188 0.140625 C 2.757812 0.140625 2.179688 -0.167969 1.765625 -0.78125 L 1.765625 0 M 1.75 -3.15625 C 1.75 -2.410156 1.851562 -1.871094 2.054688 -1.539062 C 2.386719 -1 2.835938 -0.726562 3.40625 -0.726562 C 3.863281 -0.726562 4.261719 -0.925781 4.601562 -1.328125 C 4.933594 -1.726562 5.101562 -2.324219 5.101562 -3.117188 C 5.101562 -3.929688 4.941406 -4.53125 4.621094 -4.914062 C 4.296875 -5.304688 3.90625 -5.496094 3.453125 -5.496094 C 2.988281 -5.496094 2.589844 -5.296875 2.257812 -4.894531 C 1.921875 -4.496094 1.75 -3.914062 1.75 -3.15625 Z M 1.75 -3.15625 "/>
</g>
<g id="glyph-0-27">
<path d="M 1.484375 2.523438 L 0.726562 2.523438 C 1.894531 0.652344 2.476562 -1.226562 2.476562 -3.105469 C 2.476562 -3.839844 2.394531 -4.566406 2.226562 -5.289062 C 2.09375 -5.875 1.90625 -6.4375 1.671875 -6.976562 C 1.515625 -7.328125 1.203125 -7.914062 0.726562 -8.734375 L 1.484375 -8.734375 C 2.214844 -7.753906 2.757812 -6.769531 3.109375 -5.78125 C 3.410156 -4.929688 3.5625 -4.039062 3.5625 -3.109375 C 3.5625 -2.054688 3.359375 -1.035156 2.957031 -0.0546875 C 2.550781 0.929688 2.058594 1.789062 1.484375 2.523438 Z M 1.484375 2.523438 "/>
</g>
<g id="glyph-0-28">
<path d="M 0.945312 0 L 0.945312 -8.589844 L 4.75 -8.589844 C 5.515625 -8.589844 6.101562 -8.511719 6.5 -8.359375 C 6.898438 -8.203125 7.214844 -7.929688 7.453125 -7.539062 C 7.691406 -7.148438 7.8125 -6.71875 7.8125 -6.246094 C 7.8125 -5.636719 7.613281 -5.121094 7.21875 -4.703125 C 6.824219 -4.285156 6.214844 -4.019531 5.390625 -3.90625 C 5.691406 -3.761719 5.917969 -3.621094 6.078125 -3.480469 C 6.40625 -3.175781 6.722656 -2.792969 7.019531 -2.335938 L 8.515625 0 L 7.085938 0 L 5.945312 -1.789062 C 5.613281 -2.304688 5.339844 -2.695312 5.125 -2.96875 C 4.910156 -3.242188 4.71875 -3.433594 4.550781 -3.546875 C 4.378906 -3.652344 4.207031 -3.730469 4.03125 -3.773438 C 3.902344 -3.800781 3.691406 -3.8125 3.398438 -3.8125 L 2.078125 -3.8125 L 2.078125 0 L 0.945312 0 M 2.078125 -4.796875 L 4.523438 -4.796875 C 5.042969 -4.796875 5.449219 -4.851562 5.742188 -4.960938 C 6.035156 -5.066406 6.257812 -5.238281 6.410156 -5.476562 C 6.5625 -5.710938 6.640625 -5.96875 6.640625 -6.246094 C 6.640625 -6.652344 6.492188 -6.984375 6.195312 -7.25 C 5.902344 -7.507812 5.433594 -7.640625 4.796875 -7.640625 L 2.078125 -7.640625 Z M 2.078125 -4.796875 "/>
</g>
<g id="glyph-0-29">
<path d="M 4.828125 0 L 4.828125 -0.785156 C 4.433594 -0.167969 3.851562 0.140625 3.085938 0.140625 C 2.589844 0.140625 2.136719 0.00390625 1.71875 -0.269531 C 1.304688 -0.542969 0.980469 -0.925781 0.753906 -1.414062 C 0.523438 -1.90625 0.410156 -2.46875 0.410156 -3.105469 C 0.410156 -3.726562 0.511719 -4.289062 0.71875 -4.796875 C 0.925781 -5.300781 1.238281 -5.6875 1.652344 -5.960938 C 2.066406 -6.226562 2.527344 -6.363281 3.039062 -6.363281 C 3.414062 -6.363281 3.75 -6.285156 4.042969 -6.125 C 4.335938 -5.96875 4.574219 -5.761719 4.757812 -5.507812 L 4.757812 -8.589844 L 5.804688 -8.589844 L 5.804688 0 L 4.828125 0 M 1.492188 -3.105469 C 1.492188 -2.308594 1.660156 -1.710938 2 -1.320312 C 2.332031 -0.921875 2.730469 -0.726562 3.1875 -0.726562 C 3.648438 -0.726562 4.039062 -0.914062 4.363281 -1.292969 C 4.683594 -1.667969 4.84375 -2.242188 4.84375 -3.015625 C 4.84375 -3.867188 4.679688 -4.492188 4.351562 -4.890625 C 4.023438 -5.289062 3.621094 -5.492188 3.140625 -5.492188 C 2.671875 -5.492188 2.28125 -5.296875 1.964844 -4.914062 C 1.652344 -4.53125 1.492188 -3.929688 1.492188 -3.105469 Z M 1.492188 -3.105469 "/>
</g>
<g id="glyph-1-0">
<path d="M -2.578125 -0.382812 L -3.640625 -0.382812 L -3.640625 -3.621094 L -2.578125 -3.621094 Z M -2.578125 -0.382812 "/>
</g>
<g id="glyph-1-1">
<path d="M -1.011719 -6.039062 L 0 -6.039062 L 0 -0.363281 C -0.253906 -0.355469 -0.5 -0.394531 -0.734375 -0.488281 C -1.117188 -0.628906 -1.5 -0.863281 -1.875 -1.179688 C -2.25 -1.5 -2.683594 -1.957031 -3.175781 -2.5625 C -3.941406 -3.492188 -4.546875 -4.125 -4.996094 -4.453125 C -5.441406 -4.78125 -5.867188 -4.945312 -6.265625 -4.945312 C -6.679688 -4.945312 -7.035156 -4.796875 -7.320312 -4.496094 C -7.609375 -4.199219 -7.75 -3.808594 -7.75 -3.328125 C -7.75 -2.820312 -7.601562 -2.414062 -7.296875 -2.109375 C -6.992188 -1.804688 -6.570312 -1.648438 -6.03125 -1.648438 L -6.140625 -0.5625 C -6.949219 -0.636719 -7.566406 -0.917969 -7.988281 -1.402344 C -8.414062 -1.882812 -8.625 -2.535156 -8.625 -3.351562 C -8.625 -4.175781 -8.398438 -4.828125 -7.9375 -5.308594 C -7.484375 -5.789062 -6.914062 -6.03125 -6.242188 -6.03125 C -5.894531 -6.03125 -5.558594 -5.957031 -5.226562 -5.820312 C -4.894531 -5.675781 -4.542969 -5.445312 -4.179688 -5.117188 C -3.808594 -4.792969 -3.304688 -4.25 -2.664062 -3.492188 C -2.132812 -2.859375 -1.773438 -2.453125 -1.585938 -2.273438 C -1.394531 -2.09375 -1.203125 -1.945312 -1.011719 -1.828125 Z M -1.011719 -6.039062 "/>
</g>
<g id="glyph-1-2">
<path d="M 0 -4.46875 L 0 -3.414062 L -6.71875 -3.417969 C -6.476562 -3.160156 -6.234375 -2.828125 -5.992188 -2.417969 C -5.75 -2.003906 -5.570312 -1.636719 -5.449219 -1.308594 L -6.46875 -1.308594 C -6.746094 -1.894531 -7.082031 -2.410156 -7.476562 -2.855469 C -7.871094 -3.292969 -8.253906 -3.605469 -8.625 -3.792969 L -8.625 -4.472656 Z M 0 -4.46875 "/>
</g>
<g id="glyph-1-3">
<path d="M -4.234375 -0.5 C -5.25 -0.5 -6.070312 -0.601562 -6.6875 -0.8125 C -7.308594 -1.019531 -7.785156 -1.332031 -8.121094 -1.742188 C -8.457031 -2.15625 -8.625 -2.671875 -8.625 -3.300781 C -8.625 -3.757812 -8.53125 -4.164062 -8.347656 -4.511719 C -8.160156 -4.859375 -7.894531 -5.144531 -7.542969 -5.375 C -7.195312 -5.597656 -6.769531 -5.777344 -6.265625 -5.90625 C -5.765625 -6.035156 -5.085938 -6.101562 -4.234375 -6.101562 C -3.226562 -6.101562 -2.414062 -5.996094 -1.796875 -5.789062 C -1.175781 -5.582031 -0.699219 -5.273438 -0.359375 -4.859375 C -0.0234375 -4.449219 0.148438 -3.925781 0.148438 -3.296875 C 0.148438 -2.46875 -0.152344 -1.820312 -0.742188 -1.347656 C -1.460938 -0.78125 -2.621094 -0.5 -4.234375 -0.5 M -4.234375 -1.582031 C -2.824219 -1.582031 -1.886719 -1.746094 -1.421875 -2.078125 C -0.953125 -2.40625 -0.71875 -2.8125 -0.71875 -3.296875 C -0.71875 -3.78125 -0.953125 -4.191406 -1.421875 -4.519531 C -1.890625 -4.851562 -2.828125 -5.015625 -4.234375 -5.015625 C -5.648438 -5.015625 -6.589844 -4.851562 -7.054688 -4.519531 C -7.519531 -4.191406 -7.75 -3.78125 -7.75 -3.289062 C -7.75 -2.800781 -7.546875 -2.414062 -7.136719 -2.128906 C -6.613281 -1.765625 -5.644531 -1.582031 -4.234375 -1.582031 Z M -4.234375 -1.582031 "/>
</g>
<g id="glyph-1-4">
<path d="M -2.757812 -0.539062 L -2.851562 -1.613281 C -2.421875 -1.660156 -2.070312 -1.78125 -1.796875 -1.964844 C -1.519531 -2.152344 -1.296875 -2.4375 -1.128906 -2.828125 C -0.957031 -3.21875 -0.871094 -3.660156 -0.871094 -4.148438 C -0.871094 -4.582031 -0.9375 -4.964844 -1.066406 -5.296875 C -1.195312 -5.628906 -1.371094 -5.875 -1.597656 -6.039062 C -1.820312 -6.199219 -2.066406 -6.28125 -2.332031 -6.28125 C -2.601562 -6.28125 -2.835938 -6.203125 -3.039062 -6.046875 C -3.238281 -5.890625 -3.40625 -5.632812 -3.542969 -5.273438 C -3.632812 -5.042969 -3.773438 -4.53125 -3.964844 -3.746094 C -4.152344 -2.953125 -4.332031 -2.402344 -4.5 -2.085938 C -4.714844 -1.675781 -4.980469 -1.371094 -5.300781 -1.167969 C -5.617188 -0.96875 -5.972656 -0.867188 -6.367188 -0.867188 C -6.804688 -0.867188 -7.207031 -0.992188 -7.585938 -1.238281 C -7.960938 -1.484375 -8.246094 -1.839844 -8.445312 -2.316406 C -8.636719 -2.785156 -8.734375 -3.3125 -8.734375 -3.890625 C -8.734375 -4.527344 -8.632812 -5.089844 -8.429688 -5.574219 C -8.222656 -6.0625 -7.921875 -6.433594 -7.523438 -6.699219 C -7.125 -6.957031 -6.671875 -7.097656 -6.171875 -7.117188 L -6.085938 -6.03125 C -6.628906 -5.96875 -7.039062 -5.773438 -7.320312 -5.433594 C -7.59375 -5.097656 -7.734375 -4.597656 -7.734375 -3.9375 C -7.734375 -3.25 -7.609375 -2.75 -7.355469 -2.433594 C -7.105469 -2.121094 -6.800781 -1.964844 -6.445312 -1.964844 C -6.136719 -1.964844 -5.882812 -2.074219 -5.683594 -2.296875 C -5.484375 -2.515625 -5.28125 -3.085938 -5.070312 -4.011719 C -4.863281 -4.933594 -4.679688 -5.566406 -4.523438 -5.914062 C -4.292969 -6.410156 -4 -6.78125 -3.648438 -7.019531 C -3.292969 -7.257812 -2.886719 -7.375 -2.425781 -7.375 C -1.96875 -7.375 -1.539062 -7.246094 -1.132812 -6.984375 C -0.730469 -6.722656 -0.414062 -6.347656 -0.191406 -5.855469 C 0.0351562 -5.367188 0.148438 -4.8125 0.148438 -4.203125 C 0.148438 -3.421875 0.03125 -2.773438 -0.191406 -2.246094 C -0.417969 -1.722656 -0.761719 -1.308594 -1.214844 -1.011719 C -1.671875 -0.710938 -2.1875 -0.554688 -2.757812 -0.539062 Z M -2.757812 -0.539062 "/>
</g>
<g id="glyph-1-5">
<path d="M -0.941406 -3.09375 L -0.0117188 -3.246094 C 0.0507812 -2.949219 0.0820312 -2.683594 0.0820312 -2.449219 C 0.0820312 -2.066406 0.0195312 -1.769531 -0.0976562 -1.558594 C -0.21875 -1.347656 -0.378906 -1.199219 -0.578125 -1.113281 C -0.773438 -1.027344 -1.1875 -0.984375 -1.820312 -0.984375 L -5.402344 -0.984375 L -5.402344 -0.210938 L -6.222656 -0.210938 L -6.222656 -0.984375 L -7.765625 -0.984375 L -8.398438 -2.035156 L -6.222656 -2.035156 L -6.222656 -3.09375 L -5.402344 -3.09375 L -5.402344 -2.035156 L -1.761719 -2.03125 C -1.460938 -2.03125 -1.269531 -2.050781 -1.183594 -2.089844 C -1.097656 -2.125 -1.027344 -2.1875 -0.976562 -2.269531 C -0.925781 -2.355469 -0.902344 -2.472656 -0.902344 -2.632812 C -0.902344 -2.75 -0.914062 -2.902344 -0.941406 -3.09375 Z M -0.941406 -3.09375 "/>
</g>
<g id="glyph-1-6">
<path d="M -0.765625 -4.851562 C -0.433594 -4.460938 -0.199219 -4.085938 -0.0625 -3.722656 C 0.0703125 -3.363281 0.140625 -2.972656 0.140625 -2.5625 C 0.140625 -1.875 -0.0273438 -1.351562 -0.359375 -0.984375 C -0.695312 -0.617188 -1.121094 -0.433594 -1.640625 -0.433594 C -1.945312 -0.433594 -2.222656 -0.503906 -2.476562 -0.640625 C -2.726562 -0.78125 -2.929688 -0.960938 -3.082031 -1.1875 C -3.234375 -1.410156 -3.347656 -1.664062 -3.429688 -1.945312 C -3.480469 -2.152344 -3.535156 -2.464844 -3.585938 -2.882812 C -3.6875 -3.734375 -3.808594 -4.359375 -3.949219 -4.765625 C -4.09375 -4.765625 -4.183594 -4.769531 -4.226562 -4.769531 C -4.652344 -4.769531 -4.957031 -4.671875 -5.132812 -4.46875 C -5.371094 -4.203125 -5.492188 -3.800781 -5.492188 -3.269531 C -5.492188 -2.773438 -5.402344 -2.40625 -5.230469 -2.171875 C -5.054688 -1.933594 -4.746094 -1.757812 -4.304688 -1.648438 L -4.445312 -0.617188 C -4.886719 -0.707031 -5.246094 -0.863281 -5.515625 -1.078125 C -5.789062 -1.292969 -5.996094 -1.601562 -6.144531 -2.011719 C -6.289062 -2.414062 -6.363281 -2.886719 -6.363281 -3.421875 C -6.363281 -3.953125 -6.300781 -4.382812 -6.175781 -4.71875 C -6.050781 -5.046875 -5.894531 -5.292969 -5.703125 -5.449219 C -5.515625 -5.605469 -5.273438 -5.714844 -4.984375 -5.777344 C -4.804688 -5.8125 -4.484375 -5.828125 -4.015625 -5.828125 L -2.605469 -5.828125 C -1.628906 -5.828125 -1.007812 -5.851562 -0.746094 -5.898438 C -0.488281 -5.941406 -0.238281 -6.03125 0 -6.164062 L 0 -5.0625 C -0.21875 -4.953125 -0.472656 -4.882812 -0.765625 -4.851562 M -3.121094 -4.765625 C -2.964844 -4.378906 -2.832031 -3.804688 -2.726562 -3.039062 C -2.660156 -2.605469 -2.589844 -2.300781 -2.515625 -2.121094 C -2.433594 -1.941406 -2.320312 -1.800781 -2.171875 -1.707031 C -2.019531 -1.605469 -1.851562 -1.558594 -1.671875 -1.558594 C -1.386719 -1.558594 -1.152344 -1.664062 -0.964844 -1.878906 C -0.777344 -2.089844 -0.683594 -2.402344 -0.683594 -2.8125 C -0.683594 -3.21875 -0.773438 -3.578125 -0.953125 -3.898438 C -1.128906 -4.210938 -1.371094 -4.445312 -1.679688 -4.59375 C -1.917969 -4.707031 -2.269531 -4.761719 -2.734375 -4.765625 Z M -3.121094 -4.765625 "/>
</g>
<g id="glyph-1-7">
<path d="M 0 -0.789062 L -6.222656 -0.792969 L -6.222656 -1.742188 L -5.335938 -1.742188 C -6.019531 -2.195312 -6.363281 -2.855469 -6.363281 -3.722656 C -6.363281 -4.09375 -6.296875 -4.441406 -6.160156 -4.753906 C -6.027344 -5.070312 -5.847656 -5.304688 -5.632812 -5.460938 C -5.410156 -5.617188 -5.152344 -5.726562 -4.851562 -5.789062 C -4.65625 -5.828125 -4.3125 -5.847656 -3.824219 -5.847656 L 0 -5.847656 L 0 -4.792969 L -3.785156 -4.792969 C -4.214844 -4.792969 -4.535156 -4.75 -4.75 -4.671875 C -4.960938 -4.585938 -5.132812 -4.441406 -5.257812 -4.234375 C -5.386719 -4.023438 -5.449219 -3.78125 -5.449219 -3.5 C -5.449219 -3.046875 -5.304688 -2.660156 -5.023438 -2.335938 C -4.734375 -2.007812 -4.195312 -1.847656 -3.398438 -1.847656 L 0 -1.84375 Z M 0 -0.789062 "/>
</g>
<g id="glyph-1-8">
<path d="M 0 -4.828125 L -0.785156 -4.828125 C -0.167969 -4.433594 0.140625 -3.851562 0.140625 -3.085938 C 0.140625 -2.589844 0.00390625 -2.136719 -0.269531 -1.71875 C -0.542969 -1.304688 -0.925781 -0.980469 -1.414062 -0.753906 C -1.90625 -0.523438 -2.46875 -0.410156 -3.105469 -0.410156 C -3.726562 -0.410156 -4.289062 -0.511719 -4.796875 -0.722656 C -5.300781 -0.925781 -5.6875 -1.238281 -5.960938 -1.652344 C -6.226562 -2.066406 -6.363281 -2.527344 -6.363281 -3.042969 C -6.363281 -3.417969 -6.285156 -3.75 -6.125 -4.042969 C -5.96875 -4.335938 -5.761719 -4.574219 -5.507812 -4.757812 L -8.589844 -4.757812 L -8.589844 -5.808594 L 0 -5.804688 L 0 -4.828125 M -3.105469 -1.496094 C -2.308594 -1.492188 -1.710938 -1.660156 -1.316406 -2 C -0.921875 -2.332031 -0.726562 -2.730469 -0.726562 -3.1875 C -0.726562 -3.648438 -0.914062 -4.039062 -1.292969 -4.363281 C -1.667969 -4.683594 -2.242188 -4.84375 -3.015625 -4.84375 C -3.867188 -4.84375 -4.492188 -4.679688 -4.890625 -4.351562 C -5.289062 -4.023438 -5.492188 -3.621094 -5.492188 -3.140625 C -5.492188 -2.671875 -5.296875 -2.28125 -4.914062 -1.964844 C -4.53125 -1.652344 -3.929688 -1.492188 -3.105469 -1.496094 Z M -3.105469 -1.496094 "/>
</g>
<g id="glyph-1-9">
<path d="M 0 -0.78125 L -6.222656 -0.78125 L -6.222656 -1.730469 L -5.28125 -1.730469 C -5.71875 -1.96875 -6.011719 -2.195312 -6.152344 -2.398438 C -6.292969 -2.605469 -6.363281 -2.828125 -6.363281 -3.078125 C -6.363281 -3.429688 -6.25 -3.792969 -6.023438 -4.160156 L -5.046875 -3.796875 C -5.195312 -3.539062 -5.273438 -3.28125 -5.273438 -3.023438 C -5.273438 -2.792969 -5.203125 -2.585938 -5.066406 -2.402344 C -4.925781 -2.21875 -4.734375 -2.085938 -4.488281 -2.011719 C -4.113281 -1.894531 -3.703125 -1.835938 -3.257812 -1.835938 L 0 -1.835938 Z M 0 -0.78125 "/>
</g>
<g id="glyph-1-10">
<path d="M -7.375 -0.796875 L -8.589844 -0.796875 L -8.589844 -1.851562 L -7.375 -1.851562 L -7.375 -0.796875 M 0 -0.796875 L -6.222656 -0.796875 L -6.222656 -1.851562 L 0 -1.851562 Z M 0 -0.796875 "/>
</g>
<g id="glyph-1-11">
<path d="M 0 -0.234375 L -0.855469 -0.234375 L -5.402344 -4.195312 C -5.378906 -3.746094 -5.367188 -3.347656 -5.367188 -3.007812 L -5.367188 -0.46875 L -6.222656 -0.46875 L -6.222656 -5.554688 L -5.523438 -5.554688 L -1.574219 -2.1875 L -0.855469 -1.535156 C -0.890625 -2.007812 -0.90625 -2.449219 -0.90625 -2.867188 L -0.90625 -5.742188 L 0 -5.742188 Z M 0 -0.234375 "/>
</g>
<g id="glyph-1-12">
<path d="M -2.003906 -5.050781 L -1.867188 -6.140625 C -1.230469 -5.96875 -0.738281 -5.648438 -0.386719 -5.1875 C -0.0351562 -4.71875 0.140625 -4.125 0.140625 -3.40625 C 0.140625 -2.492188 -0.140625 -1.773438 -0.699219 -1.238281 C -1.261719 -0.707031 -2.046875 -0.441406 -3.058594 -0.441406 C -4.105469 -0.441406 -4.917969 -0.710938 -5.496094 -1.25 C -6.074219 -1.789062 -6.363281 -2.484375 -6.363281 -3.347656 C -6.363281 -4.179688 -6.078125 -4.859375 -5.515625 -5.382812 C -4.945312 -5.914062 -4.148438 -6.175781 -3.121094 -6.175781 C -3.058594 -6.175781 -2.964844 -6.171875 -2.839844 -6.171875 L -2.84375 -1.53125 C -2.15625 -1.566406 -1.632812 -1.761719 -1.269531 -2.109375 C -0.90625 -2.457031 -0.726562 -2.890625 -0.726562 -3.410156 C -0.726562 -3.796875 -0.828125 -4.125 -1.03125 -4.398438 C -1.234375 -4.671875 -1.558594 -4.890625 -2.003906 -5.050781 M -3.710938 -1.589844 L -3.707031 -5.0625 C -4.230469 -5.015625 -4.625 -4.882812 -4.886719 -4.664062 C -5.292969 -4.328125 -5.496094 -3.890625 -5.496094 -3.359375 C -5.496094 -2.871094 -5.332031 -2.464844 -5.007812 -2.136719 C -4.683594 -1.804688 -4.25 -1.625 -3.710938 -1.589844 Z M -3.710938 -1.589844 "/>
</g>
<g id="glyph-1-13">
</g>
<g id="glyph-1-14">
<path d="M -1.859375 -0.371094 L -2.023438 -1.414062 C -1.601562 -1.46875 -1.28125 -1.632812 -1.058594 -1.902344 C -0.835938 -2.167969 -0.726562 -2.542969 -0.726562 -3.023438 C -0.726562 -3.507812 -0.824219 -3.867188 -1.023438 -4.101562 C -1.21875 -4.335938 -1.449219 -4.453125 -1.714844 -4.453125 C -1.953125 -4.453125 -2.140625 -4.347656 -2.277344 -4.140625 C -2.371094 -3.996094 -2.492188 -3.640625 -2.636719 -3.0625 C -2.832031 -2.289062 -3 -1.753906 -3.144531 -1.457031 C -3.285156 -1.15625 -3.484375 -0.929688 -3.734375 -0.777344 C -3.988281 -0.621094 -4.265625 -0.546875 -4.570312 -0.546875 C -4.847656 -0.546875 -5.105469 -0.609375 -5.339844 -0.734375 C -5.578125 -0.863281 -5.773438 -1.035156 -5.929688 -1.253906 C -6.050781 -1.417969 -6.152344 -1.640625 -6.238281 -1.925781 C -6.320312 -2.207031 -6.363281 -2.511719 -6.363281 -2.835938 C -6.363281 -3.324219 -6.292969 -3.753906 -6.152344 -4.121094 C -6.011719 -4.492188 -5.820312 -4.761719 -5.582031 -4.9375 C -5.339844 -5.113281 -5.019531 -5.234375 -4.617188 -5.304688 L -4.476562 -4.273438 C -4.796875 -4.226562 -5.046875 -4.089844 -5.226562 -3.863281 C -5.40625 -3.640625 -5.496094 -3.324219 -5.496094 -2.914062 C -5.496094 -2.425781 -5.414062 -2.082031 -5.257812 -1.875 C -5.09375 -1.667969 -4.90625 -1.566406 -4.695312 -1.566406 C -4.554688 -1.566406 -4.433594 -1.605469 -4.324219 -1.695312 C -4.210938 -1.777344 -4.117188 -1.914062 -4.042969 -2.097656 C -4.003906 -2.203125 -3.914062 -2.515625 -3.773438 -3.03125 C -3.574219 -3.773438 -3.410156 -4.296875 -3.285156 -4.589844 C -3.15625 -4.886719 -2.972656 -5.117188 -2.730469 -5.285156 C -2.488281 -5.453125 -2.1875 -5.535156 -1.828125 -5.539062 C -1.476562 -5.535156 -1.144531 -5.433594 -0.835938 -5.230469 C -0.523438 -5.023438 -0.285156 -4.726562 -0.113281 -4.34375 C 0.0546875 -3.953125 0.140625 -3.515625 0.140625 -3.03125 C 0.140625 -2.21875 -0.0273438 -1.605469 -0.363281 -1.179688 C -0.699219 -0.757812 -1.199219 -0.488281 -1.859375 -0.371094 Z M -1.859375 -0.371094 "/>
</g>
<g id="glyph-1-15">
<path d="M 0 -4.867188 L -0.914062 -4.867188 C -0.210938 -4.382812 0.140625 -3.726562 0.140625 -2.894531 C 0.140625 -2.527344 0.0703125 -2.183594 -0.0703125 -1.867188 C -0.210938 -1.546875 -0.386719 -1.3125 -0.601562 -1.15625 C -0.8125 -1.003906 -1.074219 -0.894531 -1.382812 -0.832031 C -1.589844 -0.789062 -1.917969 -0.769531 -2.367188 -0.769531 L -6.222656 -0.769531 L -6.222656 -1.824219 L -2.773438 -1.824219 C -2.21875 -1.824219 -1.847656 -1.84375 -1.65625 -1.886719 C -1.378906 -1.953125 -1.164062 -2.09375 -1.003906 -2.308594 C -0.847656 -2.523438 -0.765625 -2.789062 -0.765625 -3.105469 C -0.765625 -3.421875 -0.847656 -3.71875 -1.011719 -3.996094 C -1.171875 -4.273438 -1.394531 -4.46875 -1.671875 -4.585938 C -1.953125 -4.699219 -2.355469 -4.757812 -2.886719 -4.757812 L -6.222656 -4.757812 L -6.222656 -5.8125 L 0 -5.8125 Z M 0 -4.867188 "/>
</g>
<g id="glyph-1-16">
<path d="M 0 -0.765625 L -8.589844 -0.769531 L -8.589844 -1.824219 L 0 -1.820312 Z M 0 -0.765625 "/>
</g>
<g id="glyph-2-0">
<path d="M 0.492188 -1.488281 L 1.253906 -1.558594 C 1.316406 -1.203125 1.441406 -0.941406 1.621094 -0.78125 C 1.804688 -0.621094 2.035156 -0.539062 2.320312 -0.539062 C 2.5625 -0.539062 2.777344 -0.597656 2.960938 -0.707031 C 3.144531 -0.820312 3.292969 -0.96875 3.410156 -1.152344 C 3.527344 -1.339844 3.625 -1.589844 3.703125 -1.90625 C 3.785156 -2.222656 3.824219 -2.546875 3.824219 -2.875 C 3.824219 -2.910156 3.820312 -2.960938 3.820312 -3.03125 C 3.660156 -2.78125 3.445312 -2.574219 3.171875 -2.417969 C 2.898438 -2.261719 2.601562 -2.183594 2.28125 -2.183594 C 1.746094 -2.183594 1.296875 -2.378906 0.925781 -2.765625 C 0.558594 -3.152344 0.375 -3.660156 0.375 -4.292969 C 0.375 -4.945312 0.566406 -5.472656 0.953125 -5.871094 C 1.335938 -6.269531 1.820312 -6.46875 2.398438 -6.46875 C 2.816406 -6.46875 3.203125 -6.355469 3.546875 -6.128906 C 3.894531 -5.90625 4.160156 -5.582031 4.339844 -5.164062 C 4.519531 -4.75 4.609375 -4.144531 4.609375 -3.351562 C 4.609375 -2.53125 4.519531 -1.875 4.34375 -1.386719 C 4.164062 -0.898438 3.898438 -0.527344 3.542969 -0.273438 C 3.191406 -0.0195312 2.777344 0.109375 2.304688 0.109375 C 1.796875 0.109375 1.386719 -0.03125 1.066406 -0.308594 C 0.75 -0.589844 0.554688 -0.984375 0.492188 -1.488281 M 3.730469 -4.332031 C 3.730469 -4.785156 3.609375 -5.148438 3.367188 -5.414062 C 3.125 -5.679688 2.835938 -5.8125 2.496094 -5.8125 C 2.144531 -5.8125 1.839844 -5.671875 1.578125 -5.382812 C 1.316406 -5.097656 1.1875 -4.722656 1.1875 -4.265625 C 1.1875 -3.855469 1.308594 -3.523438 1.558594 -3.265625 C 1.804688 -3.011719 2.109375 -2.882812 2.472656 -2.882812 C 2.839844 -2.882812 3.140625 -3.011719 3.378906 -3.265625 C 3.613281 -3.523438 3.730469 -3.878906 3.730469 -4.332031 Z M 3.730469 -4.332031 "/>
</g>
<g id="glyph-2-1">
<path d="M 0.425781 -5.597656 L 0.425781 -6.359375 L 4.597656 -6.359375 L 4.597656 -5.742188 C 4.1875 -5.308594 3.78125 -4.726562 3.378906 -4.003906 C 2.972656 -3.28125 2.664062 -2.535156 2.445312 -1.769531 C 2.285156 -1.230469 2.183594 -0.640625 2.140625 0 L 1.328125 0 C 1.335938 -0.507812 1.433594 -1.121094 1.625 -1.835938 C 1.816406 -2.554688 2.089844 -3.246094 2.445312 -3.914062 C 2.800781 -4.578125 3.179688 -5.140625 3.582031 -5.597656 Z M 0.425781 -5.597656 "/>
</g>
<g id="glyph-2-2">
<path d="M 3.351562 0 L 2.5625 0 L 2.5625 -5.039062 C 2.371094 -4.859375 2.121094 -4.675781 1.8125 -4.496094 C 1.503906 -4.3125 1.226562 -4.175781 0.980469 -4.085938 L 0.980469 -4.851562 C 1.421875 -5.058594 1.808594 -5.3125 2.140625 -5.609375 C 2.472656 -5.902344 2.707031 -6.191406 2.84375 -6.46875 L 3.351562 -6.46875 Z M 3.351562 0 "/>
</g>
</g>
<clipPath id="clip-0">
<path clip-rule="nonzero" d="M 59.039062 82 L 473.757812 82 L 473.757812 275 L 59.039062 275 Z M 59.039062 82 "/>
</clipPath>
</defs>
<rect x="-50.4" y="-36" width="604.8" height="432" fill="rgb(100%, 100%, 100%)" fill-opacity="1"/>
<path fill="none" stroke-width="0.75" stroke-linecap="round" stroke-linejoin="round" stroke="rgb(0%, 0%, 0%)" stroke-opacity="1" stroke-miterlimit="10" d="M 420.199219 95.230469 C 420.199219 98.828125 414.800781 98.828125 414.800781 95.230469 C 414.800781 91.628906 420.199219 91.628906 420.199219 95.230469 "/>
<path fill="none" stroke-width="0.75" stroke-linecap="round" stroke-linejoin="round" stroke="rgb(0%, 0%, 0%)" stroke-opacity="1" stroke-miterlimit="10" d="M 382.320312 122.878906 C 382.320312 126.480469 376.917969 126.480469 376.917969 122.878906 C 376.917969 119.277344 382.320312 119.277344 382.320312 122.878906 "/>
<path fill="none" stroke-width="0.75" stroke-linecap="round" stroke-linejoin="round" stroke="rgb(0%, 0%, 0%)" stroke-opacity="1" stroke-miterlimit="10" d="M 348.785156 141.925781 C 348.785156 145.523438 343.386719 145.523438 343.386719 141.925781 C 343.386719 138.324219 348.785156 138.324219 348.785156 141.925781 "/>
<path fill="none" stroke-width="0.75" stroke-linecap="round" stroke-linejoin="round" stroke="rgb(0%, 0%, 0%)" stroke-opacity="1" stroke-miterlimit="10" d="M 179.699219 241.121094 C 179.699219 244.722656 174.296875 244.722656 174.296875 241.121094 C 174.296875 237.523438 179.699219 237.523438 179.699219 241.121094 "/>
<path fill="none" stroke-width="0.75" stroke-linecap="round" stroke-linejoin="round" stroke="rgb(0%, 0%, 0%)" stroke-opacity="1" stroke-miterlimit="10" d="M 398.234375 115.070312 C 398.234375 118.671875 392.835938 118.671875 392.835938 115.070312 C 392.835938 111.472656 398.234375 111.472656 398.234375 115.070312 "/>
<path fill="none" stroke-width="0.75" stroke-linecap="round" stroke-linejoin="round" stroke="rgb(0%, 0%, 0%)" stroke-opacity="1" stroke-miterlimit="10" d="M 310.046875 156.097656 C 310.046875 159.695312 304.644531 159.695312 304.644531 156.097656 C 304.644531 152.496094 310.046875 152.496094 310.046875 156.097656 "/>
<path fill="none" stroke-width="0.75" stroke-linecap="round" stroke-linejoin="round" stroke="rgb(0%, 0%, 0%)" stroke-opacity="1" stroke-miterlimit="10" d="M 77.101562 278.132812 C 77.101562 281.734375 71.699219 281.734375 71.699219 278.132812 C 71.699219 274.535156 77.101562 274.535156 77.101562 278.132812 "/>
<path fill="none" stroke-width="0.75" stroke-linecap="round" stroke-linejoin="round" stroke="rgb(0%, 0%, 0%)" stroke-opacity="1" stroke-miterlimit="10" d="M 189.414062 223.058594 C 189.414062 226.65625 184.011719 226.65625 184.011719 223.058594 C 184.011719 219.457031 189.414062 219.457031 189.414062 223.058594 "/>
<path fill="none" stroke-width="0.75" stroke-linecap="round" stroke-linejoin="round" stroke="rgb(0%, 0%, 0%)" stroke-opacity="1" stroke-miterlimit="10" d="M 461.101562 82.164062 C 461.101562 85.765625 455.699219 85.765625 455.699219 82.164062 C 455.699219 78.5625 461.101562 78.5625 461.101562 82.164062 "/>
<path fill="none" stroke-width="0.75" stroke-linecap="round" stroke-linejoin="round" stroke="rgb(0%, 0%, 0%)" stroke-opacity="1" stroke-miterlimit="10" d="M 155.882812 255.417969 C 155.882812 259.015625 150.480469 259.015625 150.480469 255.417969 C 150.480469 251.816406 155.882812 251.816406 155.882812 255.417969 "/>
<path fill="none" stroke-width="0.75" stroke-linecap="round" stroke-linejoin="round" stroke="rgb(0%, 0%, 0%)" stroke-opacity="1" stroke-miterlimit="10" d="M 168.722656 253.894531 C 168.722656 257.492188 163.324219 257.492188 163.324219 253.894531 C 163.324219 250.292969 168.722656 250.292969 168.722656 253.894531 "/>
<path fill="none" stroke-width="0.75" stroke-linecap="round" stroke-linejoin="round" stroke="rgb(0%, 0%, 0%)" stroke-opacity="1" stroke-miterlimit="10" d="M 139.964844 256.773438 C 139.964844 260.371094 134.566406 260.371094 134.566406 256.773438 C 134.566406 253.171875 139.964844 253.171875 139.964844 256.773438 "/>
<path fill="none" stroke-width="0.75" stroke-linecap="round" stroke-linejoin="round" stroke="rgb(0%, 0%, 0%)" stroke-opacity="1" stroke-miterlimit="10" d="M 358.503906 137.628906 C 358.503906 141.226562 353.101562 141.226562 353.101562 137.628906 C 353.101562 134.027344 358.503906 134.027344 358.503906 137.628906 "/>
<path fill="none" stroke-width="0.75" stroke-linecap="round" stroke-linejoin="round" stroke="rgb(0%, 0%, 0%)" stroke-opacity="1" stroke-miterlimit="10" d="M 118 260.273438 C 118 263.875 112.601562 263.875 112.601562 260.273438 C 112.601562 256.675781 118 256.675781 118 260.273438 "/>
<path fill="none" stroke-width="0.75" stroke-linecap="round" stroke-linejoin="round" stroke="rgb(0%, 0%, 0%)" stroke-opacity="1" stroke-miterlimit="10" d="M 296.902344 177.265625 C 296.902344 180.863281 291.503906 180.863281 291.503906 177.265625 C 291.503906 173.664062 296.902344 173.664062 296.902344 177.265625 "/>
<path fill="none" stroke-width="0.75" stroke-linecap="round" stroke-linejoin="round" stroke="rgb(0%, 0%, 0%)" stroke-opacity="1" stroke-miterlimit="10" d="M 316.960938 154.878906 C 316.960938 158.476562 311.5625 158.476562 311.5625 154.878906 C 311.5625 151.277344 316.960938 151.277344 316.960938 154.878906 "/>
<path fill="none" stroke-width="0.75" stroke-linecap="round" stroke-linejoin="round" stroke="rgb(0%, 0%, 0%)" stroke-opacity="1" stroke-miterlimit="10" d="M 206.375 208.898438 C 206.375 212.496094 200.972656 212.496094 200.972656 208.898438 C 200.972656 205.296875 206.375 205.296875 206.375 208.898438 "/>
<path fill="none" stroke-width="0.75" stroke-linecap="round" stroke-linejoin="round" stroke="rgb(0%, 0%, 0%)" stroke-opacity="1" stroke-miterlimit="10" d="M 214.007812 204.410156 C 214.007812 208.011719 208.605469 208.011719 208.605469 204.410156 C 208.605469 200.8125 214.007812 200.8125 214.007812 204.410156 "/>
<path fill="none" stroke-width="0.75" stroke-linecap="round" stroke-linejoin="round" stroke="rgb(0%, 0%, 0%)" stroke-opacity="1" stroke-miterlimit="10" d="M 259.96875 185.695312 C 259.96875 189.292969 254.570312 189.292969 254.570312 185.695312 C 254.570312 182.09375 259.96875 182.09375 259.96875 185.695312 "/>
<path fill="none" stroke-width="0.75" stroke-linecap="round" stroke-linejoin="round" stroke="rgb(0%, 0%, 0%)" stroke-opacity="1" stroke-miterlimit="10" d="M 303.378906 171.667969 C 303.378906 175.269531 297.976562 175.269531 297.976562 171.667969 C 297.976562 168.066406 303.378906 168.066406 303.378906 171.667969 "/>
<path fill="none" stroke-width="0.75" stroke-linecap="round" stroke-linejoin="round" stroke="rgb(0%, 0%, 0%)" stroke-opacity="1" stroke-miterlimit="10" d="M 247.621094 194.882812 C 247.621094 198.484375 242.21875 198.484375 242.21875 194.882812 C 242.21875 191.285156 247.621094 191.285156 247.621094 194.882812 "/>
<path fill="none" stroke-width="0.75" stroke-linecap="round" stroke-linejoin="round" stroke="rgb(0%, 0%, 0%)" stroke-opacity="1" stroke-miterlimit="10" d="M 324.195312 153.230469 C 324.195312 156.828125 318.792969 156.828125 318.792969 153.230469 C 318.792969 149.628906 324.195312 149.628906 324.195312 153.230469 "/>
<path fill="none" stroke-width="0.75" stroke-linecap="round" stroke-linejoin="round" stroke="rgb(0%, 0%, 0%)" stroke-opacity="1" stroke-miterlimit="10" d="M 241.296875 197.90625 C 241.296875 201.503906 235.898438 201.503906 235.898438 197.90625 C 235.898438 194.304688 241.296875 194.304688 241.296875 197.90625 "/>
<path fill="none" stroke-width="0.75" stroke-linecap="round" stroke-linejoin="round" stroke="rgb(0%, 0%, 0%)" stroke-opacity="1" stroke-miterlimit="10" d="M 221.238281 202.03125 C 221.238281 205.632812 215.839844 205.632812 215.839844 202.03125 C 215.839844 198.429688 221.238281 198.429688 221.238281 202.03125 "/>
<path fill="none" stroke-width="0.75" stroke-linecap="round" stroke-linejoin="round" stroke="rgb(0%, 0%, 0%)" stroke-opacity="1" stroke-miterlimit="10" d="M 198.230469 217.378906 C 198.230469 220.976562 192.828125 220.976562 192.828125 217.378906 C 192.828125 213.777344 198.230469 213.777344 198.230469 217.378906 "/>
<path fill="none" stroke-width="0.75" stroke-linecap="round" stroke-linejoin="round" stroke="rgb(0%, 0%, 0%)" stroke-opacity="1" stroke-miterlimit="10" d="M 278.230469 179.699219 C 278.230469 183.296875 272.828125 183.296875 272.828125 179.699219 C 272.828125 176.097656 278.230469 176.097656 278.230469 179.699219 "/>
<path fill="none" stroke-width="0.75" stroke-linecap="round" stroke-linejoin="round" stroke="rgb(0%, 0%, 0%)" stroke-opacity="1" stroke-miterlimit="10" d="M 234.824219 198.949219 C 234.824219 202.550781 229.421875 202.550781 229.421875 198.949219 C 229.421875 195.351562 234.824219 195.351562 234.824219 198.949219 "/>
<path fill="none" stroke-width="0.75" stroke-linecap="round" stroke-linejoin="round" stroke="rgb(0%, 0%, 0%)" stroke-opacity="1" stroke-miterlimit="10" d="M 331.824219 145.644531 C 331.824219 149.242188 326.425781 149.242188 326.425781 145.644531 C 326.425781 142.042969 331.824219 142.042969 331.824219 145.644531 "/>
<path fill="none" stroke-width="0.75" stroke-linecap="round" stroke-linejoin="round" stroke="rgb(0%, 0%, 0%)" stroke-opacity="1" stroke-miterlimit="10" d="M 339.972656 144.148438 C 339.972656 147.746094 334.570312 147.746094 334.570312 144.148438 C 334.570312 140.546875 339.972656 140.546875 339.972656 144.148438 "/>
<path fill="none" stroke-width="0.75" stroke-linecap="round" stroke-linejoin="round" stroke="rgb(0%, 0%, 0%)" stroke-opacity="1" stroke-miterlimit="10" d="M 272.136719 180.871094 C 272.136719 184.46875 266.738281 184.46875 266.738281 180.871094 C 266.738281 177.269531 272.136719 177.269531 272.136719 180.871094 "/>
<path fill="none" stroke-width="0.75" stroke-linecap="round" stroke-linejoin="round" stroke="rgb(0%, 0%, 0%)" stroke-opacity="1" stroke-miterlimit="10" d="M 369.476562 130.066406 C 369.476562 133.667969 364.074219 133.667969 364.074219 130.066406 C 364.074219 126.46875 369.476562 126.46875 369.476562 130.066406 "/>
<path fill="none" stroke-width="0.75" stroke-linecap="round" stroke-linejoin="round" stroke="rgb(0%, 0%, 0%)" stroke-opacity="1" stroke-miterlimit="10" d="M 228.15625 200.835938 C 228.15625 204.4375 222.753906 204.4375 222.753906 200.835938 C 222.753906 197.238281 228.15625 197.238281 228.15625 200.835938 "/>
<path fill="none" stroke-width="0.75" stroke-linecap="round" stroke-linejoin="round" stroke="rgb(0%, 0%, 0%)" stroke-opacity="1" stroke-miterlimit="10" d="M 290.578125 178.980469 C 290.578125 182.582031 285.179688 182.582031 285.179688 178.980469 C 285.179688 175.378906 290.578125 175.378906 290.578125 178.980469 "/>
<path fill="none" stroke-width="0.75" stroke-linecap="round" stroke-linejoin="round" stroke="rgb(0%, 0%, 0%)" stroke-opacity="1" stroke-miterlimit="10" d="M 284.367188 179.636719 C 284.367188 183.234375 278.964844 183.234375 278.964844 179.636719 C 278.964844 176.035156 284.367188 176.035156 284.367188 179.636719 "/>
<path fill="none" stroke-width="0.75" stroke-linecap="round" stroke-linejoin="round" stroke="rgb(0%, 0%, 0%)" stroke-opacity="1" stroke-miterlimit="10" d="M 253.832031 190.972656 C 253.832031 194.574219 248.433594 194.574219 248.433594 190.972656 C 248.433594 187.371094 253.832031 187.371094 253.832031 190.972656 "/>
<path fill="none" stroke-width="0.75" stroke-linecap="round" stroke-linejoin="round" stroke="rgb(0%, 0%, 0%)" stroke-opacity="1" stroke-miterlimit="10" d="M 266.0625 182.398438 C 266.0625 185.996094 260.660156 185.996094 260.660156 182.398438 C 260.660156 178.796875 266.0625 178.796875 266.0625 182.398438 "/>
<path fill="none" stroke-width="0.75" stroke-linecap="round" stroke-linejoin="round" stroke="rgb(0%, 0%, 0%)" stroke-opacity="1" stroke-miterlimit="10" d="M 91.886719 286.558594 L 440.914062 286.558594 "/>
<path fill="none" stroke-width="0.75" stroke-linecap="round" stroke-linejoin="round" stroke="rgb(0%, 0%, 0%)" stroke-opacity="1" stroke-miterlimit="10" d="M 91.886719 286.558594 L 91.886719 293.761719 "/>
<path fill="none" stroke-width="0.75" stroke-linecap="round" stroke-linejoin="round" stroke="rgb(0%, 0%, 0%)" stroke-opacity="1" stroke-miterlimit="10" d="M 179.144531 286.558594 L 179.144531 293.761719 "/>
<path fill="none" stroke-width="0.75" stroke-linecap="round" stroke-linejoin="round" stroke="rgb(0%, 0%, 0%)" stroke-opacity="1" stroke-miterlimit="10" d="M 266.398438 286.558594 L 266.398438 293.761719 "/>
<path fill="none" stroke-width="0.75" stroke-linecap="round" stroke-linejoin="round" stroke="rgb(0%, 0%, 0%)" stroke-opacity="1" stroke-miterlimit="10" d="M 353.65625 286.558594 L 353.65625 293.761719 "/>
<path fill="none" stroke-width="0.75" stroke-linecap="round" stroke-linejoin="round" stroke="rgb(0%, 0%, 0%)" stroke-opacity="1" stroke-miterlimit="10" d="M 440.914062 286.558594 L 440.914062 293.761719 "/>
<g fill="rgb(0%, 0%, 0%)" fill-opacity="1">
<use xlink:href="#glyph-0-0" x="86.550781" y="312.480469"/>
<use xlink:href="#glyph-0-1" x="90.546875" y="312.480469"/>
</g>
<g fill="rgb(0%, 0%, 0%)" fill-opacity="1">
<use xlink:href="#glyph-0-0" x="173.808594" y="312.480469"/>
<use xlink:href="#glyph-0-2" x="177.804688" y="312.480469"/>
</g>
<g fill="rgb(0%, 0%, 0%)" fill-opacity="1">
<use xlink:href="#glyph-0-3" x="263.0625" y="312.480469"/>
</g>
<g fill="rgb(0%, 0%, 0%)" fill-opacity="1">
<use xlink:href="#glyph-0-2" x="350.320312" y="312.480469"/>
</g>
<g fill="rgb(0%, 0%, 0%)" fill-opacity="1">
<use xlink:href="#glyph-0-1" x="437.578125" y="312.480469"/>
</g>
<path fill="none" stroke-width="0.75" stroke-linecap="round" stroke-linejoin="round" stroke="rgb(0%, 0%, 0%)" stroke-opacity="1" stroke-miterlimit="10" d="M 59.039062 276.21875 L 59.039062 90.726562 "/>
<path fill="none" stroke-width="0.75" stroke-linecap="round" stroke-linejoin="round" stroke="rgb(0%, 0%, 0%)" stroke-opacity="1" stroke-miterlimit="10" d="M 59.039062 276.21875 L 51.839844 276.21875 "/>
<path fill="none" stroke-width="0.75" stroke-linecap="round" stroke-linejoin="round" stroke="rgb(0%, 0%, 0%)" stroke-opacity="1" stroke-miterlimit="10" d="M 59.039062 229.847656 L 51.839844 229.847656 "/>
<path fill="none" stroke-width="0.75" stroke-linecap="round" stroke-linejoin="round" stroke="rgb(0%, 0%, 0%)" stroke-opacity="1" stroke-miterlimit="10" d="M 59.039062 183.472656 L 51.839844 183.472656 "/>
<path fill="none" stroke-width="0.75" stroke-linecap="round" stroke-linejoin="round" stroke="rgb(0%, 0%, 0%)" stroke-opacity="1" stroke-miterlimit="10" d="M 59.039062 137.101562 L 51.839844 137.101562 "/>
<path fill="none" stroke-width="0.75" stroke-linecap="round" stroke-linejoin="round" stroke="rgb(0%, 0%, 0%)" stroke-opacity="1" stroke-miterlimit="10" d="M 59.039062 90.726562 L 51.839844 90.726562 "/>
<g fill="rgb(0%, 0%, 0%)" fill-opacity="1">
<use xlink:href="#glyph-1-0" x="41.761719" y="281.554688"/>
<use xlink:href="#glyph-1-1" x="41.761719" y="277.558594"/>
</g>
<g fill="rgb(0%, 0%, 0%)" fill-opacity="1">
<use xlink:href="#glyph-1-0" x="41.761719" y="235.183594"/>
<use xlink:href="#glyph-1-2" x="41.761719" y="231.1875"/>
</g>
<g fill="rgb(0%, 0%, 0%)" fill-opacity="1">
<use xlink:href="#glyph-1-3" x="41.761719" y="186.808594"/>
</g>
<g fill="rgb(0%, 0%, 0%)" fill-opacity="1">
<use xlink:href="#glyph-1-2" x="41.761719" y="140.4375"/>
</g>
<g fill="rgb(0%, 0%, 0%)" fill-opacity="1">
<use xlink:href="#glyph-1-1" x="41.761719" y="94.0625"/>
</g>
<path fill="none" stroke-width="0.75" stroke-linecap="round" stroke-linejoin="round" stroke="rgb(0%, 0%, 0%)" stroke-opacity="1" stroke-miterlimit="10" d="M 59.039062 286.558594 L 473.761719 286.558594 L 473.761719 59.039062 L 59.039062 59.039062 Z M 59.039062 286.558594 "/>
<g fill="rgb(0%, 0%, 0%)" fill-opacity="1">
<use xlink:href="#glyph-0-4" x="209.703125" y="341.28125"/>
<use xlink:href="#glyph-0-5" x="217.033203" y="341.28125"/>
<use xlink:href="#glyph-0-6" x="223.707031" y="341.28125"/>
<use xlink:href="#glyph-0-7" x="230.380859" y="341.28125"/>
<use xlink:href="#glyph-0-8" x="237.054688" y="341.28125"/>
<use xlink:href="#glyph-0-6" x="241.050781" y="341.28125"/>
<use xlink:href="#glyph-0-9" x="247.724609" y="341.28125"/>
<use xlink:href="#glyph-0-10" x="251.058594" y="341.28125"/>
<use xlink:href="#glyph-0-11" x="253.724609" y="341.28125"/>
<use xlink:href="#glyph-0-12" x="259.724609" y="341.28125"/>
<use xlink:href="#glyph-0-13" x="266.398438" y="341.28125"/>
<use xlink:href="#glyph-0-14" x="269.064453" y="341.28125"/>
<use xlink:href="#glyph-0-15" x="272.398438" y="341.28125"/>
<use xlink:href="#glyph-0-16" x="281.732422" y="341.28125"/>
<use xlink:href="#glyph-0-12" x="288.40625" y="341.28125"/>
<use xlink:href="#glyph-0-17" x="295.080078" y="341.28125"/>
<use xlink:href="#glyph-0-9" x="301.753906" y="341.28125"/>
<use xlink:href="#glyph-0-10" x="305.087891" y="341.28125"/>
<use xlink:href="#glyph-0-13" x="307.753906" y="341.28125"/>
<use xlink:href="#glyph-0-6" x="310.419922" y="341.28125"/>
<use xlink:href="#glyph-0-18" x="317.09375" y="341.28125"/>
</g>
<g fill="rgb(0%, 0%, 0%)" fill-opacity="1">
<use xlink:href="#glyph-1-4" x="12.960938" y="233.839844"/>
<use xlink:href="#glyph-1-5" x="12.960938" y="225.835938"/>
<use xlink:href="#glyph-1-6" x="12.960938" y="222.501953"/>
<use xlink:href="#glyph-1-7" x="12.960938" y="215.828125"/>
<use xlink:href="#glyph-1-8" x="12.960938" y="209.154297"/>
<use xlink:href="#glyph-1-6" x="12.960938" y="202.480469"/>
<use xlink:href="#glyph-1-9" x="12.960938" y="195.806641"/>
<use xlink:href="#glyph-1-8" x="12.960938" y="191.810547"/>
<use xlink:href="#glyph-1-10" x="12.960938" y="185.136719"/>
<use xlink:href="#glyph-1-11" x="12.960938" y="182.470703"/>
<use xlink:href="#glyph-1-12" x="12.960938" y="176.470703"/>
<use xlink:href="#glyph-1-8" x="12.960938" y="169.796875"/>
<use xlink:href="#glyph-1-13" x="12.960938" y="163.123047"/>
<use xlink:href="#glyph-1-9" x="12.960938" y="159.789062"/>
<use xlink:href="#glyph-1-12" x="12.960938" y="155.792969"/>
<use xlink:href="#glyph-1-14" x="12.960938" y="149.119141"/>
<use xlink:href="#glyph-1-10" x="12.960938" y="143.119141"/>
<use xlink:href="#glyph-1-8" x="12.960938" y="140.453125"/>
<use xlink:href="#glyph-1-15" x="12.960938" y="133.779297"/>
<use xlink:href="#glyph-1-6" x="12.960938" y="127.105469"/>
<use xlink:href="#glyph-1-16" x="12.960938" y="120.431641"/>
<use xlink:href="#glyph-1-14" x="12.960938" y="117.765625"/>
</g>
<g clip-path="url(#clip-0)">
<path fill="none" stroke-width="0.75" stroke-linecap="round" stroke-linejoin="round" stroke="rgb(49.803922%, 49.803922%, 49.803922%)" stroke-opacity="1" stroke-dasharray="0.75 2.25" stroke-miterlimit="10" d="M 59.039062 273.914062 L 473.761719 82.949219 "/>
</g>
<g fill="rgb(0%, 0%, 0%)" fill-opacity="1">
<use xlink:href="#glyph-0-13" x="131.34375" y="355.679688"/>
<use xlink:href="#glyph-0-19" x="134.009766" y="355.679688"/>
<use xlink:href="#glyph-0-20" x="144.005859" y="355.679688"/>
<use xlink:href="#glyph-0-12" x="148.001953" y="355.679688"/>
<use xlink:href="#glyph-0-21" x="154.675781" y="355.679688"/>
<use xlink:href="#glyph-0-21" x="161.349609" y="355.679688"/>
<use xlink:href="#glyph-0-8" x="168.023438" y="355.679688"/>
<use xlink:href="#glyph-0-22" x="172.019531" y="355.679688"/>
<use xlink:href="#glyph-0-12" x="175.353516" y="355.679688"/>
<use xlink:href="#glyph-0-18" x="182.027344" y="355.679688"/>
<use xlink:href="#glyph-0-18" x="188.027344" y="355.679688"/>
<use xlink:href="#glyph-0-12" x="194.027344" y="355.679688"/>
<use xlink:href="#glyph-0-16" x="200.701172" y="355.679688"/>
<use xlink:href="#glyph-0-13" x="207.375" y="355.679688"/>
<use xlink:href="#glyph-0-9" x="210.041016" y="355.679688"/>
<use xlink:href="#glyph-0-22" x="213.375" y="355.679688"/>
<use xlink:href="#glyph-0-23" x="216.708984" y="355.679688"/>
<use xlink:href="#glyph-0-6" x="223.382812" y="355.679688"/>
<use xlink:href="#glyph-0-8" x="230.056641" y="355.679688"/>
<use xlink:href="#glyph-0-22" x="234.052734" y="355.679688"/>
<use xlink:href="#glyph-0-19" x="237.386719" y="355.679688"/>
<use xlink:href="#glyph-0-10" x="247.382812" y="355.679688"/>
<use xlink:href="#glyph-0-13" x="250.048828" y="355.679688"/>
<use xlink:href="#glyph-0-13" x="252.714844" y="355.679688"/>
<use xlink:href="#glyph-0-10" x="255.380859" y="355.679688"/>
<use xlink:href="#glyph-0-7" x="258.046875" y="355.679688"/>
<use xlink:href="#glyph-0-17" x="264.720703" y="355.679688"/>
<use xlink:href="#glyph-0-14" x="271.394531" y="355.679688"/>
<use xlink:href="#glyph-0-24" x="274.728516" y="355.679688"/>
<use xlink:href="#glyph-0-14" x="281.736328" y="355.679688"/>
<use xlink:href="#glyph-0-2" x="285.070312" y="355.679688"/>
<use xlink:href="#glyph-0-14" x="291.744141" y="355.679688"/>
<use xlink:href="#glyph-0-25" x="295.078125" y="355.679688"/>
<use xlink:href="#glyph-0-14" x="302.085938" y="355.679688"/>
<use xlink:href="#glyph-0-12" x="305.419922" y="355.679688"/>
<use xlink:href="#glyph-0-10" x="312.09375" y="355.679688"/>
<use xlink:href="#glyph-0-8" x="314.759766" y="355.679688"/>
<use xlink:href="#glyph-0-22" x="318.755859" y="355.679688"/>
<use xlink:href="#glyph-0-23" x="322.089844" y="355.679688"/>
<use xlink:href="#glyph-0-26" x="328.763672" y="355.679688"/>
<use xlink:href="#glyph-0-22" x="335.4375" y="355.679688"/>
<use xlink:href="#glyph-0-19" x="338.771484" y="355.679688"/>
<use xlink:href="#glyph-0-6" x="348.767578" y="355.679688"/>
<use xlink:href="#glyph-0-9" x="355.441406" y="355.679688"/>
<use xlink:href="#glyph-0-8" x="358.775391" y="355.679688"/>
<use xlink:href="#glyph-0-10" x="362.771484" y="355.679688"/>
<use xlink:href="#glyph-0-11" x="365.4375" y="355.679688"/>
<use xlink:href="#glyph-0-22" x="371.4375" y="355.679688"/>
<use xlink:href="#glyph-0-9" x="374.771484" y="355.679688"/>
<use xlink:href="#glyph-0-7" x="378.105469" y="355.679688"/>
<use xlink:href="#glyph-0-17" x="384.779297" y="355.679688"/>
<use xlink:href="#glyph-0-18" x="391.453125" y="355.679688"/>
<use xlink:href="#glyph-0-27" x="397.453125" y="355.679688"/>
</g>
<g fill="rgb(0%, 0%, 0%)" fill-opacity="1">
<use xlink:href="#glyph-0-15" x="227.054688" y="52.558594"/>
<use xlink:href="#glyph-0-0" x="236.388672" y="52.558594"/>
<use xlink:href="#glyph-0-15" x="240.384766" y="52.558594"/>
<use xlink:href="#glyph-0-14" x="249.71875" y="52.558594"/>
<use xlink:href="#glyph-0-28" x="253.052734" y="52.558594"/>
<use xlink:href="#glyph-0-6" x="261.71875" y="52.558594"/>
<use xlink:href="#glyph-0-18" x="268.392578" y="52.558594"/>
<use xlink:href="#glyph-0-10" x="274.392578" y="52.558594"/>
<use xlink:href="#glyph-0-29" x="277.058594" y="52.558594"/>
<use xlink:href="#glyph-0-16" x="283.732422" y="52.558594"/>
<use xlink:href="#glyph-0-12" x="290.40625" y="52.558594"/>
<use xlink:href="#glyph-0-13" x="297.080078" y="52.558594"/>
<use xlink:href="#glyph-0-18" x="299.746094" y="52.558594"/>
</g>
<g fill="rgb(0%, 0%, 0%)" fill-opacity="1">
<use xlink:href="#glyph-2-0" x="449.796875" y="84.644531"/>
</g>
<g fill="rgb(0%, 0%, 0%)" fill-opacity="1">
<use xlink:href="#glyph-2-1" x="78" y="280.613281"/>
</g>
<g fill="rgb(0%, 0%, 0%)" fill-opacity="1">
<use xlink:href="#glyph-2-2" x="408.894531" y="97.710938"/>
</g>
</svg>
